<?xml version="1.0" encoding="UTF-8" standalone="no"?><!-- Generator: Gravit.io --><svg xmlns="http://www.w3.org/2000/svg" xmlns:xlink="http://www.w3.org/1999/xlink" style="isolation:isolate" viewBox="0 0 512 512" width="512pt" height="512pt"><g><g><path d=" M 277.751 476.765 C 287.997 476.089 296.553 471.811 303.466 463.93 C 310.401 456.049 313.508 446.997 312.833 436.752 C 312.18 426.53 307.901 417.951 300.02 411.016 C 292.14 404.103 283.088 400.996 272.843 401.649 C 262.62 402.324 254.041 406.602 247.106 414.483 C 240.216 422.364 237.086 431.416 237.739 441.661 C 238.415 451.906 242.693 460.485 250.574 467.398 C 258.455 474.288 267.506 477.418 277.751 476.765 Z " fill="rgb(255,94,87)"/><path d=" M 66.094 164.615 C -5.036 184.475 10.928 51.648 157.242 38.926 C 93.227 54.756 71.903 126.044 66.094 164.615 Z " fill="rgb(255,94,87)"/><path d=" M 433.635 212.733 C 396.662 69.392 170.729 43.295 92.461 114.853 C 199.798 -63.502 637.074 96.975 433.635 212.733 Z " fill="rgb(255,94,87)"/><path d=" M 275.5 448.979 L 53.755 157.95 L 62.919 150.947 L 275.094 429.434 L 439.174 194.742 L 448.631 201.34" fill="rgb(255,94,87)"/></g></g></svg>